<svg width="16" height="16" viewBox="0 0 16 16" fill="none" xmlns="http://www.w3.org/2000/svg">
<path d="M15.3333 11.9999C15.3333 12.4999 15.1933 12.9733 14.9467 13.3733C14.8067 13.6133 14.6267 13.8266 14.42 13.9999C13.9533 14.4199 13.34 14.6666 12.6667 14.6666C11.8533 14.6666 11.1267 14.2999 10.6467 13.7266C10.6333 13.7066 10.6133 13.6933 10.6 13.6733C10.52 13.5799 10.4467 13.4799 10.3867 13.3733C10.14 12.9733 10 12.4999 10 11.9999C10 11.1599 10.3867 10.4066 11 9.91992C11.46 9.55326 12.04 9.33325 12.6667 9.33325C13.3333 9.33325 13.9333 9.57323 14.4 9.9799C14.48 10.0399 14.5533 10.1133 14.62 10.1866C15.06 10.6666 15.3333 11.2999 15.3333 11.9999Z" stroke="#0CD05B" stroke-miterlimit="10" stroke-linecap="round" stroke-linejoin="round"/>
<path d="M13.6585 11.9868H11.6719" stroke="#0CD05B" stroke-miterlimit="10" stroke-linecap="round" stroke-linejoin="round"/>
<path d="M12.666 11.0134V13.0068" stroke="#0CD05B" stroke-miterlimit="10" stroke-linecap="round" stroke-linejoin="round"/>
<path d="M2.11328 4.95996L7.99995 8.36662L13.8466 4.97994" stroke="#0CD05B" stroke-linecap="round" stroke-linejoin="round"/>
<path d="M8 14.4065V8.35986" stroke="#0CD05B" stroke-linecap="round" stroke-linejoin="round"/>
<path d="M14.4071 6.11325V9.88661C14.4071 9.91994 14.4071 9.94658 14.4004 9.97991C13.9338 9.57325 13.3338 9.33326 12.6671 9.33326C12.0404 9.33326 11.4604 9.55327 11.0004 9.91993C10.3871 10.4066 10.0004 11.1599 10.0004 11.9999C10.0004 12.4999 10.1404 12.9733 10.3871 13.3733C10.4471 13.4799 10.5204 13.5799 10.6004 13.6733L9.38042 14.3466C8.62042 14.7733 7.38041 14.7733 6.62041 14.3466L3.06041 12.3733C2.25375 11.9266 1.59375 10.8066 1.59375 9.88661V6.11325C1.59375 5.19325 2.25375 4.07327 3.06041 3.6266L6.62041 1.65325C7.38041 1.22659 8.62042 1.22659 9.38042 1.65325L12.9404 3.6266C13.7471 4.07327 14.4071 5.19325 14.4071 6.11325Z" stroke="#0CD05B" stroke-linecap="round" stroke-linejoin="round"/>
</svg>
