<svg width="50" height="50" viewBox="0 0 50 50" fill="none" xmlns="http://www.w3.org/2000/svg">
<rect width="50" height="50" fill="#F5F5F5"/>
<g clip-path="url(#clip0_0_1)">
<path d="M43 0H7C3.13401 0 0 3.13401 0 7V43C0 46.866 3.13401 50 7 50H43C46.866 50 50 46.866 50 43V7C50 3.13401 46.866 0 43 0Z" fill="#EFEFFF"/>
<path d="M30.5401 21.3099C31.8987 21.3099 33.0001 20.2085 33.0001 18.8499C33.0001 17.4913 31.8987 16.3899 30.5401 16.3899C29.1814 16.3899 28.0801 17.4913 28.0801 18.8499C28.0801 20.2085 29.1814 21.3099 30.5401 21.3099Z" stroke="#5351B0" stroke-width="1.8" stroke-miterlimit="10" stroke-linecap="round" stroke-linejoin="round"/>
<path d="M19.46 21.3099C20.8186 21.3099 21.92 20.2085 21.92 18.8499C21.92 17.4913 20.8186 16.3899 19.46 16.3899C18.1014 16.3899 17 17.4913 17 18.8499C17 20.2085 18.1014 21.3099 19.46 21.3099Z" stroke="#5351B0" stroke-width="1.8" stroke-miterlimit="10" stroke-linecap="round" stroke-linejoin="round"/>
<path d="M30.5401 33.6099C31.8987 33.6099 33.0001 32.5086 33.0001 31.1499C33.0001 29.7913 31.8987 28.6899 30.5401 28.6899C29.1814 28.6899 28.0801 29.7913 28.0801 31.1499C28.0801 32.5086 29.1814 33.6099 30.5401 33.6099Z" stroke="#5351B0" stroke-width="1.8" stroke-miterlimit="10" stroke-linecap="round" stroke-linejoin="round"/>
<path d="M19.46 33.6099C20.8186 33.6099 21.92 32.5086 21.92 31.1499C21.92 29.7913 20.8186 28.6899 19.46 28.6899C18.1014 28.6899 17 29.7913 17 31.1499C17 32.5086 18.1014 33.6099 19.46 33.6099Z" stroke="#5351B0" stroke-width="1.8" stroke-miterlimit="10" stroke-linecap="round" stroke-linejoin="round"/>
</g>
<defs>
<clipPath id="clip0_0_1">
<rect width="50" height="50" fill="white"/>
</clipPath>
</defs>
</svg>
