<svg width="49" height="57" viewBox="0 0 49 57" fill="none" xmlns="http://www.w3.org/2000/svg">
<g opacity="0.3">
<path opacity="0.3" d="M34.1966 11.5007C32.858 11.4994 31.5747 10.9917 30.6281 10.089C29.6816 9.18623 29.1493 7.96221 29.148 6.68554V4.33999e-07H6.59106C5.72563 -0.000306297 4.86859 0.161978 4.06894 0.477637C3.2693 0.793296 2.54268 1.25614 1.93061 1.83968C1.31855 2.42323 0.833013 3.11606 0.501751 3.87862C0.17049 4.64117 -5.97553e-08 5.45849 0 6.2839V44.1649C-5.97553e-08 44.9903 0.17049 45.8077 0.501751 46.5702C0.833013 47.3328 1.31855 48.0256 1.93061 48.6092C2.54268 49.1927 3.2693 49.6555 4.06894 49.9712C4.86859 50.2868 5.72563 50.4492 6.59106 50.4488H33.6702C35.4176 50.4488 37.0934 49.7868 38.329 48.6083C39.5646 47.4298 40.2588 45.8315 40.2588 44.1649V11.5007H34.1966Z" fill="#23888A"/>
</g>
<path d="M40.2631 11.5007H34.2009C32.8624 11.4994 31.579 10.9917 30.6325 10.089C29.686 9.18623 29.1536 7.96221 29.1523 6.68554V0L40.2631 11.5007Z" fill="#23888A"/>
<path d="M31.9819 19.551H6.70476C6.4619 19.551 6.229 19.459 6.05728 19.2952C5.88555 19.1314 5.78907 18.9093 5.78907 18.6777C5.78874 18.5628 5.8122 18.449 5.85808 18.3427C5.90395 18.2365 5.97135 18.14 6.05641 18.0586C6.14147 17.9773 6.2425 17.9127 6.35376 17.8687C6.46502 17.8247 6.5843 17.802 6.70476 17.802H31.9819C32.2254 17.802 32.4589 17.8943 32.6311 18.0585C32.8033 18.2227 32.9 18.4454 32.9 18.6777C32.8994 18.9095 32.8023 19.1317 32.6302 19.2954C32.4581 19.4591 32.225 19.551 31.9819 19.551Z" fill="#23888A"/>
<path d="M31.9819 24.7769H6.70476C6.4619 24.7769 6.229 24.6848 6.05728 24.5211C5.88555 24.3573 5.78907 24.1351 5.78907 23.9035C5.78874 23.7886 5.8122 23.6748 5.85808 23.5686C5.90395 23.4623 5.97135 23.3658 6.05641 23.2844C6.14147 23.2031 6.2425 23.1386 6.35376 23.0945C6.46502 23.0505 6.5843 23.0278 6.70476 23.0278H31.9819C32.2254 23.0278 32.4589 23.12 32.6311 23.2843C32.8033 23.4485 32.9 23.6713 32.9 23.9035C32.8994 24.1354 32.8023 24.3575 32.6302 24.5212C32.4581 24.6849 32.225 24.7769 31.9819 24.7769Z" fill="#23888A"/>
<path d="M31.9819 29.9993H6.70476C6.5843 29.9993 6.46502 29.9766 6.35376 29.9326C6.2425 29.8885 6.14147 29.824 6.05641 29.7427C5.97135 29.6613 5.90395 29.5648 5.85808 29.4585C5.8122 29.3523 5.78874 29.2385 5.78907 29.1236C5.78907 28.892 5.88555 28.6698 6.05728 28.5061C6.229 28.3423 6.4619 28.2502 6.70476 28.2502H31.9819C32.225 28.2502 32.4581 28.3422 32.6302 28.5059C32.8023 28.6696 32.8994 28.8918 32.9 29.1236C32.9 29.3558 32.8033 29.5786 32.6311 29.7428C32.4589 29.907 32.2254 29.9993 31.9819 29.9993Z" fill="#23888A"/>
<path d="M22.0072 35.2241H6.70476C6.5843 35.2241 6.46502 35.2015 6.35376 35.1574C6.2425 35.1134 6.14147 35.0488 6.05641 34.9675C5.97135 34.8861 5.90395 34.7896 5.85808 34.6834C5.8122 34.5772 5.78874 34.4633 5.78907 34.3484C5.78907 34.1168 5.88555 33.8946 6.05728 33.7308C6.229 33.5671 6.4619 33.4751 6.70476 33.4751H22.0072C22.25 33.4751 22.4829 33.5671 22.6546 33.7308C22.8264 33.8946 22.9229 34.1168 22.9229 34.3484C22.9232 34.4633 22.8997 34.5772 22.8538 34.6834C22.808 34.7896 22.7406 34.8861 22.6555 34.9675C22.5704 35.0488 22.4694 35.1134 22.3582 35.1574C22.2469 35.2015 22.1276 35.2241 22.0072 35.2241Z" fill="#23888A"/>
<path d="M45.0389 39.8411H14.4243C12.2527 39.8411 10.4922 41.5201 10.4922 43.5913V52.2968C10.4922 54.368 12.2527 56.0471 14.4243 56.0471H45.0389C47.2105 56.0471 48.971 54.368 48.971 52.2968V43.5913C48.971 41.5201 47.2105 39.8411 45.0389 39.8411Z" fill="#23888A"/>
<path d="M14.9764 49.8276V51.5253H13.1328V49.8276H14.9764Z" fill="white"/>
<path d="M22.0664 49.8315C21.7592 50.3619 21.2962 50.7953 20.7345 51.0785C20.1017 51.3871 19.3982 51.5404 18.6876 51.5245H15.9062V44.5027H18.6876C19.3987 44.4862 20.1031 44.6361 20.7394 44.9393C21.2994 45.2167 21.7611 45.6456 22.0664 46.1723C22.383 46.7328 22.5424 47.3619 22.5291 47.9984C22.5417 48.6371 22.3824 49.2682 22.0664 49.8315ZM20.1517 49.4789C20.3508 49.284 20.505 49.0517 20.6045 48.7968C20.704 48.5419 20.7466 48.27 20.7296 47.9984C20.7467 47.7272 20.7041 47.4556 20.6046 47.201C20.5051 46.9464 20.3508 46.7146 20.1517 46.5202C19.7057 46.1472 19.123 45.9575 18.5309 45.9925H17.6887V50.0043H18.5309C19.1226 50.0389 19.7047 49.8502 20.1517 49.4789Z" fill="white"/>
<path d="M28.9156 44.8568C29.4757 45.1603 29.9387 45.6035 30.2548 46.1388C30.5862 46.7042 30.7551 47.343 30.7445 47.9906C30.7569 48.6399 30.5879 49.2806 30.2548 49.847C29.9394 50.3849 29.4753 50.8299 28.9131 51.1337C28.3407 51.4455 27.6918 51.6066 27.0327 51.6008C26.3736 51.6066 25.7248 51.4455 25.1524 51.1337C24.5902 50.8299 24.1261 50.3849 23.8107 49.847C23.4776 49.2806 23.3086 48.6399 23.321 47.9906C23.3083 47.3428 23.4773 46.7035 23.8107 46.1388C24.1277 45.6034 24.5915 45.1602 25.1524 44.8568C25.7248 44.5451 26.3736 44.3839 27.0327 44.3898C27.6926 44.3843 28.3422 44.5454 28.9156 44.8568ZM25.6347 46.5148C25.2735 46.9268 25.0898 47.4543 25.1206 47.9906C25.0897 48.5248 25.2736 49.0501 25.6347 49.4594C25.8107 49.6418 26.0263 49.7852 26.2666 49.8796C26.5068 49.974 26.7658 50.0171 27.0254 50.0058C27.2841 50.0161 27.5421 49.9725 27.7814 49.8782C28.0207 49.7838 28.2356 49.6409 28.4112 49.4594C28.7741 49.0508 28.9598 48.5254 28.9302 47.9906C28.9596 47.4566 28.7759 46.9318 28.4161 46.5218C28.2402 46.3393 28.0246 46.1958 27.7843 46.1014C27.544 46.007 27.285 45.9639 27.0254 45.9753C26.7665 45.964 26.5081 46.0064 26.268 46.0995C26.0279 46.1926 25.8118 46.3343 25.6347 46.5148Z" fill="white"/>
<path d="M37.4503 45.1392C38.0712 45.6211 38.4936 46.2968 38.6426 47.047H36.7574C36.6302 46.7361 36.4074 46.4691 36.1183 46.281C35.8136 46.0918 35.456 45.9949 35.0925 46.0032C34.8524 45.9958 34.6138 46.0413 34.3952 46.136C34.1765 46.2308 33.9837 46.3723 33.8316 46.5496C33.4908 46.9656 33.3171 47.4841 33.3419 48.0114C33.317 48.5367 33.4907 49.053 33.8316 49.4662C33.9849 49.6417 34.1781 49.7815 34.3966 49.8749C34.6152 49.9684 34.8531 50.0131 35.0925 50.0056C35.4561 50.0148 35.8141 49.9179 36.1183 49.7277C36.4058 49.5431 36.6285 49.2803 36.7574 48.9735H38.6426C38.4911 49.7215 38.0691 50.395 37.4503 50.8767C36.7843 51.3616 35.9615 51.6094 35.1243 51.5772C34.4646 51.5905 33.8134 51.4339 33.239 51.1242C32.7015 50.8262 32.2655 50.3868 31.983 49.8585C31.6788 49.2793 31.5267 48.6381 31.5399 47.9904C31.5268 47.3426 31.6789 46.7015 31.983 46.1223C32.2655 45.594 32.7015 45.1546 33.239 44.8566C33.8134 44.5468 34.4646 44.3903 35.1243 44.4035C35.9659 44.3823 36.7887 44.6426 37.4503 45.1392Z" fill="white"/>
<path d="M44.1104 51.5245L42.5581 49.3388L41.2262 51.5245H39.1843L41.5396 47.9097L39.1133 44.5027H41.2262L42.7369 46.6183L44.037 44.5027H46.0692L43.7456 48.0381L46.2234 51.5245H44.1104Z" fill="white"/>
</svg>
