<svg width="16" height="16" viewBox="0 0 16 16" fill="none" xmlns="http://www.w3.org/2000/svg">
<path d="M12.8673 5.27999V8.71334C12.8673 10.7667 11.694 11.6466 9.93396 11.6466H4.07395C3.77395 11.6466 3.48729 11.62 3.22062 11.56C3.05396 11.5334 2.89396 11.4867 2.74729 11.4333C1.74729 11.06 1.14062 10.1933 1.14062 8.71334V5.27999C1.14062 3.22666 2.31395 2.34668 4.07395 2.34668H9.93396C11.4273 2.34668 12.5006 2.98001 12.7873 4.42668C12.834 4.69334 12.8673 4.96666 12.8673 5.27999Z" stroke="#156FDF" stroke-miterlimit="10" stroke-linecap="round" stroke-linejoin="round"/>
<path d="M14.8693 7.28007V10.7134C14.8693 12.7668 13.696 13.6467 11.936 13.6467H6.07599C5.58266 13.6467 5.136 13.5801 4.74933 13.4334C3.956 13.1401 3.41599 12.5334 3.22266 11.5601C3.48932 11.6201 3.77599 11.6467 4.07599 11.6467H9.93599C11.696 11.6467 12.8693 10.7668 12.8693 8.71342V5.28007C12.8693 4.96674 12.8427 4.68676 12.7893 4.42676C14.056 4.69342 14.8693 5.58674 14.8693 7.28007Z" stroke="#156FDF" stroke-miterlimit="10" stroke-linecap="round" stroke-linejoin="round"/>
<path d="M6.99829 8.76001C7.97031 8.76001 8.7583 7.97202 8.7583 7C8.7583 6.02798 7.97031 5.23999 6.99829 5.23999C6.02627 5.23999 5.23828 6.02798 5.23828 7C5.23828 7.97202 6.02627 8.76001 6.99829 8.76001Z" stroke="#156FDF" stroke-miterlimit="10" stroke-linecap="round" stroke-linejoin="round"/>
<path d="M3.1875 5.5332V8.46655" stroke="#156FDF" stroke-miterlimit="10" stroke-linecap="round" stroke-linejoin="round"/>
<path d="M10.8164 5.53345V8.4668" stroke="#156FDF" stroke-miterlimit="10" stroke-linecap="round" stroke-linejoin="round"/>
</svg>
